<svg xmlns="http://www.w3.org/2000/svg" viewBox="0 0 64 64">
  <!-- Gear/cog outer ring -->
  <path d="M32 4l4.5 7.8c2.2-.4 4.5-.4 6.7.1L48 4.5l1.8 8.7c1.9 1.1 3.6 2.5 5 4.1l8.7-1.8 4.5 7.5-7.4 5c.5 2.2.5 4.5.1 6.7l7.8 4.5-4.5 7.5-8.3-2.2c-1.1 1.9-2.5 3.6-4.1 5l1.8 8.7-7.5 4.5-5-7.4c-2.2.5-4.5.5-6.7.1L28.7 60l-7.5-4.5 2.2-8.3c-1.9-1.1-3.6-2.5-5-4.1l-8.7 1.8L5.2 37.4l7.4-5c-.5-2.2-.5-4.5-.1-6.7L4.7 21.2l4.5-7.5 8.3 2.2c1.1-1.9 2.5-3.6 4.1-5L19.8 2.2 27.3-2.3z" fill="none" stroke="#6e40c9" stroke-width="2.5" transform="translate(0,2) scale(0.93)" opacity="0"/>
  <!-- Simplified gear -->
  <circle cx="32" cy="32" r="22" fill="none" stroke="#8b5cf6" stroke-width="3.5" stroke-dasharray="8 4" opacity="0.35"/>
  <!-- Main circle background -->
  <circle cx="32" cy="32" r="26" fill="#1a1a2e"/>
  <!-- Gear teeth -->
  <g fill="#8b5cf6">
    <rect x="29" y="2" width="6" height="10" rx="2"/>
    <rect x="29" y="52" width="6" height="10" rx="2"/>
    <rect x="2" y="29" width="10" height="6" rx="2"/>
    <rect x="52" y="29" width="10" height="6" rx="2"/>
    <rect x="9.5" y="9.5" width="6" height="10" rx="2" transform="rotate(45 12.5 14.5)"/>
    <rect x="48.5" y="44.5" width="6" height="10" rx="2" transform="rotate(45 51.5 49.5)"/>
    <rect x="48.5" y="9.5" width="6" height="10" rx="2" transform="rotate(-45 51.5 14.5)"/>
    <rect x="9.5" y="44.5" width="6" height="10" rx="2" transform="rotate(-45 12.5 49.5)"/>
  </g>
  <!-- Inner circle -->
  <circle cx="32" cy="32" r="18" fill="#16213e"/>
  <!-- Play triangle (Actions symbol) -->
  <polygon points="26,21 26,43 44,32" fill="#8b5cf6"/>
</svg>
